<mxfile host="Electron" agent="Mozilla/5.0 (Windows NT 10.0; Win64; x64) AppleWebKit/537.36 (KHTML, like Gecko) draw.io/26.0.9 Chrome/128.0.6613.186 Electron/32.2.5 Safari/537.36" version="26.0.9">
  <diagram name="Page-1" id="AvIdeAechK8DiAcOggY4">
    <mxGraphModel dx="1594" dy="932" grid="1" gridSize="10" guides="1" tooltips="1" connect="1" arrows="1" fold="1" page="1" pageScale="1" pageWidth="827" pageHeight="1169" math="0" shadow="0">
      <root>
        <mxCell id="0" />
        <mxCell id="1" parent="0" />
        <mxCell id="c34SSBblT6kg_QO86g9Z-52" value="" style="rounded=0;whiteSpace=wrap;html=1;fillColor=none;" vertex="1" parent="1">
          <mxGeometry x="160" y="80" width="1420" height="500" as="geometry" />
        </mxCell>
        <mxCell id="c34SSBblT6kg_QO86g9Z-2" value="Data Analytics" style="ellipse;whiteSpace=wrap;html=1;sketch=1;jiggle=2;fillStyle=hachure;curveFitting=1;strokeColor=#666666;align=center;verticalAlign=middle;fontFamily=Comic Sans MS;fontSize=28;fontColor=#333333;fillColor=#f5f5f5;" vertex="1" parent="1">
          <mxGeometry x="786" y="290" width="190" height="120" as="geometry" />
        </mxCell>
        <mxCell id="c34SSBblT6kg_QO86g9Z-35" style="edgeStyle=orthogonalEdgeStyle;rounded=0;orthogonalLoop=1;jettySize=auto;html=1;exitX=0;exitY=0;exitDx=0;exitDy=0;shadow=0;sketch=1;curveFitting=1;jiggle=2;fillColor=#dae8fc;strokeColor=#6c8ebf;" edge="1" parent="1" source="c34SSBblT6kg_QO86g9Z-3" target="c34SSBblT6kg_QO86g9Z-6">
          <mxGeometry relative="1" as="geometry" />
        </mxCell>
        <mxCell id="c34SSBblT6kg_QO86g9Z-36" style="edgeStyle=orthogonalEdgeStyle;rounded=0;orthogonalLoop=1;jettySize=auto;html=1;exitX=0.5;exitY=0;exitDx=0;exitDy=0;entryX=0.5;entryY=1;entryDx=0;entryDy=0;shadow=0;sketch=1;jiggle=2;curveFitting=1;strokeColor=#6c8ebf;align=center;verticalAlign=middle;fontFamily=Helvetica;fontSize=11;fontColor=default;labelBackgroundColor=default;endArrow=classic;fillColor=#dae8fc;" edge="1" parent="1" source="c34SSBblT6kg_QO86g9Z-3" target="c34SSBblT6kg_QO86g9Z-10">
          <mxGeometry relative="1" as="geometry" />
        </mxCell>
        <mxCell id="c34SSBblT6kg_QO86g9Z-37" style="edgeStyle=orthogonalEdgeStyle;rounded=0;orthogonalLoop=1;jettySize=auto;html=1;exitX=1;exitY=0;exitDx=0;exitDy=0;entryX=0;entryY=0.5;entryDx=0;entryDy=0;shadow=0;sketch=1;jiggle=2;curveFitting=1;strokeColor=#6c8ebf;align=center;verticalAlign=middle;fontFamily=Helvetica;fontSize=11;fontColor=default;labelBackgroundColor=default;endArrow=classic;fillColor=#dae8fc;" edge="1" parent="1" source="c34SSBblT6kg_QO86g9Z-3" target="c34SSBblT6kg_QO86g9Z-14">
          <mxGeometry relative="1" as="geometry" />
        </mxCell>
        <mxCell id="c34SSBblT6kg_QO86g9Z-38" style="edgeStyle=orthogonalEdgeStyle;rounded=0;orthogonalLoop=1;jettySize=auto;html=1;exitX=1;exitY=0.5;exitDx=0;exitDy=0;entryX=0;entryY=0.5;entryDx=0;entryDy=0;shadow=0;sketch=1;jiggle=2;curveFitting=1;strokeColor=#6c8ebf;align=center;verticalAlign=middle;fontFamily=Helvetica;fontSize=11;fontColor=default;labelBackgroundColor=default;endArrow=classic;fillColor=#dae8fc;" edge="1" parent="1" source="c34SSBblT6kg_QO86g9Z-3" target="c34SSBblT6kg_QO86g9Z-16">
          <mxGeometry relative="1" as="geometry" />
        </mxCell>
        <mxCell id="c34SSBblT6kg_QO86g9Z-39" style="edgeStyle=orthogonalEdgeStyle;rounded=0;orthogonalLoop=1;jettySize=auto;html=1;exitX=1;exitY=1;exitDx=0;exitDy=0;entryX=0.5;entryY=0;entryDx=0;entryDy=0;shadow=0;sketch=1;jiggle=2;curveFitting=1;strokeColor=#6c8ebf;align=center;verticalAlign=middle;fontFamily=Helvetica;fontSize=11;fontColor=default;labelBackgroundColor=default;endArrow=classic;fillColor=#dae8fc;" edge="1" parent="1" source="c34SSBblT6kg_QO86g9Z-3" target="c34SSBblT6kg_QO86g9Z-12">
          <mxGeometry relative="1" as="geometry" />
        </mxCell>
        <mxCell id="c34SSBblT6kg_QO86g9Z-41" value="" style="edgeStyle=orthogonalEdgeStyle;rounded=0;orthogonalLoop=1;jettySize=auto;html=1;shadow=0;sketch=1;jiggle=2;curveFitting=1;strokeColor=#6c8ebf;align=center;verticalAlign=middle;fontFamily=Helvetica;fontSize=11;fontColor=default;labelBackgroundColor=default;endArrow=classic;fillColor=#dae8fc;" edge="1" parent="1" source="c34SSBblT6kg_QO86g9Z-3" target="c34SSBblT6kg_QO86g9Z-10">
          <mxGeometry relative="1" as="geometry" />
        </mxCell>
        <mxCell id="c34SSBblT6kg_QO86g9Z-3" value="&lt;b&gt;Exploratory&lt;/b&gt;&lt;br&gt;Data Analysis&lt;br&gt;&lt;b&gt;(EDA)&lt;/b&gt;" style="ellipse;whiteSpace=wrap;html=1;sketch=1;jiggle=2;fillStyle=hachure;curveFitting=1;strokeColor=#6c8ebf;align=center;verticalAlign=middle;fontFamily=Comic Sans MS;fontSize=18;fillColor=#dae8fc;" vertex="1" parent="1">
          <mxGeometry x="1140" y="300" width="160" height="100" as="geometry" />
        </mxCell>
        <mxCell id="c34SSBblT6kg_QO86g9Z-43" style="edgeStyle=orthogonalEdgeStyle;rounded=0;orthogonalLoop=1;jettySize=auto;html=1;exitX=0;exitY=0;exitDx=0;exitDy=0;entryX=0.5;entryY=1;entryDx=0;entryDy=0;sketch=1;jiggle=2;curveFitting=1;strokeColor=#82b366;align=center;verticalAlign=middle;fontFamily=Helvetica;fontSize=11;fontColor=default;labelBackgroundColor=default;endArrow=classic;fillColor=#d5e8d4;" edge="1" parent="1" source="c34SSBblT6kg_QO86g9Z-5" target="c34SSBblT6kg_QO86g9Z-20">
          <mxGeometry relative="1" as="geometry" />
        </mxCell>
        <mxCell id="c34SSBblT6kg_QO86g9Z-44" style="edgeStyle=orthogonalEdgeStyle;rounded=0;orthogonalLoop=1;jettySize=auto;html=1;exitX=0;exitY=0.5;exitDx=0;exitDy=0;entryX=1;entryY=0.5;entryDx=0;entryDy=0;sketch=1;jiggle=2;curveFitting=1;strokeColor=#82b366;align=center;verticalAlign=middle;fontFamily=Helvetica;fontSize=11;fontColor=default;labelBackgroundColor=default;endArrow=classic;fillColor=#d5e8d4;" edge="1" parent="1" source="c34SSBblT6kg_QO86g9Z-5" target="c34SSBblT6kg_QO86g9Z-26">
          <mxGeometry relative="1" as="geometry" />
        </mxCell>
        <mxCell id="c34SSBblT6kg_QO86g9Z-45" style="edgeStyle=orthogonalEdgeStyle;rounded=0;orthogonalLoop=1;jettySize=auto;html=1;exitX=0;exitY=1;exitDx=0;exitDy=0;entryX=1;entryY=0.75;entryDx=0;entryDy=0;sketch=1;jiggle=2;curveFitting=1;strokeColor=#82b366;align=center;verticalAlign=middle;fontFamily=Helvetica;fontSize=11;fontColor=default;labelBackgroundColor=default;endArrow=classic;fillColor=#d5e8d4;" edge="1" parent="1" source="c34SSBblT6kg_QO86g9Z-5" target="c34SSBblT6kg_QO86g9Z-28">
          <mxGeometry relative="1" as="geometry" />
        </mxCell>
        <mxCell id="c34SSBblT6kg_QO86g9Z-46" style="edgeStyle=orthogonalEdgeStyle;rounded=0;orthogonalLoop=1;jettySize=auto;html=1;exitX=0.5;exitY=1;exitDx=0;exitDy=0;entryX=0.5;entryY=0;entryDx=0;entryDy=0;sketch=1;jiggle=2;curveFitting=1;strokeColor=#82b366;align=center;verticalAlign=middle;fontFamily=Helvetica;fontSize=11;fontColor=default;labelBackgroundColor=default;endArrow=classic;fillColor=#d5e8d4;" edge="1" parent="1" source="c34SSBblT6kg_QO86g9Z-5" target="c34SSBblT6kg_QO86g9Z-30">
          <mxGeometry relative="1" as="geometry" />
        </mxCell>
        <mxCell id="c34SSBblT6kg_QO86g9Z-47" style="edgeStyle=orthogonalEdgeStyle;rounded=0;orthogonalLoop=1;jettySize=auto;html=1;exitX=1;exitY=1;exitDx=0;exitDy=0;entryX=0.5;entryY=0;entryDx=0;entryDy=0;sketch=1;jiggle=2;curveFitting=1;strokeColor=#82b366;align=center;verticalAlign=middle;fontFamily=Helvetica;fontSize=11;fontColor=default;labelBackgroundColor=default;endArrow=classic;fillColor=#d5e8d4;" edge="1" parent="1" source="c34SSBblT6kg_QO86g9Z-5" target="c34SSBblT6kg_QO86g9Z-24">
          <mxGeometry relative="1" as="geometry" />
        </mxCell>
        <mxCell id="c34SSBblT6kg_QO86g9Z-5" value="&lt;b&gt;Advance&lt;/b&gt;&lt;br&gt;Analytics" style="ellipse;whiteSpace=wrap;html=1;sketch=1;jiggle=2;fillStyle=hachure;curveFitting=1;strokeColor=#82b366;align=center;verticalAlign=middle;fontFamily=Comic Sans MS;fontSize=18;fillColor=#d5e8d4;" vertex="1" parent="1">
          <mxGeometry x="460" y="300" width="160" height="100" as="geometry" />
        </mxCell>
        <mxCell id="c34SSBblT6kg_QO86g9Z-6" value="&lt;b&gt;Database Exploration&lt;/b&gt;" style="rounded=0;whiteSpace=wrap;html=1;fontFamily=Comic Sans MS;fillColor=none;strokeColor=#6c8ebf;sketch=1;curveFitting=1;jiggle=2;fontSize=14;" vertex="1" parent="1">
          <mxGeometry x="1010" y="130" width="140" height="60" as="geometry" />
        </mxCell>
        <mxCell id="c34SSBblT6kg_QO86g9Z-7" value="1" style="ellipse;whiteSpace=wrap;html=1;aspect=fixed;rounded=0;sketch=1;jiggle=2;curveFitting=1;strokeColor=#6c8ebf;align=center;verticalAlign=middle;fontFamily=Comic Sans MS;fontSize=14;fontColor=default;fillColor=default;fontStyle=1;fillStyle=auto;" vertex="1" parent="1">
          <mxGeometry x="990" y="110" width="30" height="30" as="geometry" />
        </mxCell>
        <mxCell id="c34SSBblT6kg_QO86g9Z-8" value="&lt;b&gt;Ranking&lt;/b&gt;&lt;br&gt;Top N - Bottom N" style="rounded=0;whiteSpace=wrap;html=1;fontFamily=Comic Sans MS;fillColor=none;strokeColor=#6c8ebf;sketch=1;curveFitting=1;jiggle=2;fontSize=14;" vertex="1" parent="1">
          <mxGeometry x="1020" y="490" width="140" height="60" as="geometry" />
        </mxCell>
        <mxCell id="c34SSBblT6kg_QO86g9Z-9" value="6" style="ellipse;whiteSpace=wrap;html=1;aspect=fixed;rounded=0;sketch=1;jiggle=2;curveFitting=1;strokeColor=#6c8ebf;align=center;verticalAlign=middle;fontFamily=Comic Sans MS;fontSize=14;fontColor=default;fillColor=default;fontStyle=1;fillStyle=auto;" vertex="1" parent="1">
          <mxGeometry x="1000" y="470" width="30" height="30" as="geometry" />
        </mxCell>
        <mxCell id="c34SSBblT6kg_QO86g9Z-10" value="&lt;b&gt;Dimensions Exploration&lt;/b&gt;" style="rounded=0;whiteSpace=wrap;html=1;fontFamily=Comic Sans MS;fillColor=none;strokeColor=#6c8ebf;sketch=1;curveFitting=1;jiggle=2;fontSize=14;" vertex="1" parent="1">
          <mxGeometry x="1230" y="130" width="140" height="60" as="geometry" />
        </mxCell>
        <mxCell id="c34SSBblT6kg_QO86g9Z-11" value="2" style="ellipse;whiteSpace=wrap;html=1;aspect=fixed;rounded=0;sketch=1;jiggle=2;curveFitting=1;strokeColor=#6c8ebf;align=center;verticalAlign=middle;fontFamily=Comic Sans MS;fontSize=14;fontColor=default;fillColor=default;fontStyle=1;fillStyle=auto;" vertex="1" parent="1">
          <mxGeometry x="1210" y="110" width="30" height="30" as="geometry" />
        </mxCell>
        <mxCell id="c34SSBblT6kg_QO86g9Z-12" value="&lt;b&gt;Magnitude&lt;/b&gt;" style="rounded=0;whiteSpace=wrap;html=1;fontFamily=Comic Sans MS;fillColor=none;strokeColor=#6c8ebf;sketch=1;curveFitting=1;jiggle=2;fontSize=14;" vertex="1" parent="1">
          <mxGeometry x="1250" y="500" width="140" height="60" as="geometry" />
        </mxCell>
        <mxCell id="c34SSBblT6kg_QO86g9Z-13" value="5" style="ellipse;whiteSpace=wrap;html=1;aspect=fixed;rounded=0;sketch=1;jiggle=2;curveFitting=1;strokeColor=#6c8ebf;align=center;verticalAlign=middle;fontFamily=Comic Sans MS;fontSize=14;fontColor=default;fillColor=default;fontStyle=1;fillStyle=auto;" vertex="1" parent="1">
          <mxGeometry x="1230" y="480" width="30" height="30" as="geometry" />
        </mxCell>
        <mxCell id="c34SSBblT6kg_QO86g9Z-14" value="&lt;b&gt;Date&lt;/b&gt;&lt;div&gt;&lt;b&gt;&amp;nbsp;Exploration&lt;/b&gt;&lt;/div&gt;" style="rounded=0;whiteSpace=wrap;html=1;fontFamily=Comic Sans MS;fillColor=none;strokeColor=#6c8ebf;sketch=1;curveFitting=1;jiggle=2;fontSize=14;" vertex="1" parent="1">
          <mxGeometry x="1400" y="240" width="140" height="60" as="geometry" />
        </mxCell>
        <mxCell id="c34SSBblT6kg_QO86g9Z-15" value="3" style="ellipse;whiteSpace=wrap;html=1;aspect=fixed;rounded=0;sketch=1;jiggle=2;curveFitting=1;strokeColor=#6c8ebf;align=center;verticalAlign=middle;fontFamily=Comic Sans MS;fontSize=14;fontColor=default;fillColor=default;fontStyle=1;fillStyle=auto;" vertex="1" parent="1">
          <mxGeometry x="1380" y="220" width="30" height="30" as="geometry" />
        </mxCell>
        <mxCell id="c34SSBblT6kg_QO86g9Z-16" value="&lt;b&gt;Measure Exploration&lt;/b&gt;&lt;br&gt;(Big numbers)" style="rounded=0;whiteSpace=wrap;html=1;fontFamily=Comic Sans MS;fillColor=none;strokeColor=#6c8ebf;sketch=1;curveFitting=1;jiggle=2;fontSize=14;" vertex="1" parent="1">
          <mxGeometry x="1400" y="410" width="140" height="60" as="geometry" />
        </mxCell>
        <mxCell id="c34SSBblT6kg_QO86g9Z-17" value="4" style="ellipse;whiteSpace=wrap;html=1;aspect=fixed;rounded=0;sketch=1;jiggle=2;curveFitting=1;strokeColor=#6c8ebf;align=center;verticalAlign=middle;fontFamily=Comic Sans MS;fontSize=14;fontColor=default;fillColor=default;fontStyle=1;fillStyle=auto;" vertex="1" parent="1">
          <mxGeometry x="1380" y="390" width="30" height="30" as="geometry" />
        </mxCell>
        <mxCell id="c34SSBblT6kg_QO86g9Z-18" value="&lt;b&gt;Change-Over-Time&lt;/b&gt;&lt;br&gt;Trends" style="rounded=0;whiteSpace=wrap;html=1;fontFamily=Comic Sans MS;fillColor=none;strokeColor=#82b366;sketch=1;curveFitting=1;jiggle=2;fontSize=14;" vertex="1" parent="1">
          <mxGeometry x="580" y="140" width="140" height="60" as="geometry" />
        </mxCell>
        <mxCell id="c34SSBblT6kg_QO86g9Z-19" value="7" style="ellipse;whiteSpace=wrap;html=1;aspect=fixed;rounded=0;sketch=1;jiggle=2;curveFitting=1;strokeColor=#82b366;align=center;verticalAlign=middle;fontFamily=Comic Sans MS;fontSize=14;fillColor=default;fontStyle=1;fillStyle=auto;" vertex="1" parent="1">
          <mxGeometry x="560" y="120" width="30" height="30" as="geometry" />
        </mxCell>
        <mxCell id="c34SSBblT6kg_QO86g9Z-20" value="&lt;b&gt;Cummulative analysis&lt;/b&gt;" style="rounded=0;whiteSpace=wrap;html=1;fontFamily=Comic Sans MS;fillColor=none;strokeColor=#82b366;sketch=1;curveFitting=1;jiggle=2;fontSize=14;" vertex="1" parent="1">
          <mxGeometry x="354" y="140" width="140" height="60" as="geometry" />
        </mxCell>
        <mxCell id="c34SSBblT6kg_QO86g9Z-21" value="8" style="ellipse;whiteSpace=wrap;html=1;aspect=fixed;rounded=0;sketch=1;jiggle=2;curveFitting=1;strokeColor=#82b366;align=center;verticalAlign=middle;fontFamily=Comic Sans MS;fontSize=14;fillColor=default;fontStyle=1;fillStyle=auto;" vertex="1" parent="1">
          <mxGeometry x="334" y="120" width="30" height="30" as="geometry" />
        </mxCell>
        <mxCell id="c34SSBblT6kg_QO86g9Z-24" value="&lt;b&gt;Reporting&lt;/b&gt;" style="rounded=0;whiteSpace=wrap;html=1;fontFamily=Comic Sans MS;fillColor=none;strokeColor=#82b366;sketch=1;curveFitting=1;jiggle=2;fontSize=14;" vertex="1" parent="1">
          <mxGeometry x="580" y="490" width="140" height="60" as="geometry" />
        </mxCell>
        <mxCell id="c34SSBblT6kg_QO86g9Z-25" value="12" style="ellipse;whiteSpace=wrap;html=1;aspect=fixed;rounded=0;sketch=1;jiggle=2;curveFitting=1;strokeColor=#82b366;align=center;verticalAlign=middle;fontFamily=Comic Sans MS;fontSize=14;fillColor=default;fontStyle=1;fillStyle=auto;" vertex="1" parent="1">
          <mxGeometry x="560" y="470" width="30" height="30" as="geometry" />
        </mxCell>
        <mxCell id="c34SSBblT6kg_QO86g9Z-26" value="&lt;b&gt;Perfromance analysis&lt;/b&gt;" style="rounded=0;whiteSpace=wrap;html=1;fontFamily=Comic Sans MS;fillColor=none;strokeColor=#82b366;sketch=1;curveFitting=1;jiggle=2;fontSize=14;" vertex="1" parent="1">
          <mxGeometry x="200" y="240" width="140" height="60" as="geometry" />
        </mxCell>
        <mxCell id="c34SSBblT6kg_QO86g9Z-27" value="9" style="ellipse;whiteSpace=wrap;html=1;aspect=fixed;rounded=0;sketch=1;jiggle=2;curveFitting=1;strokeColor=#82b366;align=center;verticalAlign=middle;fontFamily=Comic Sans MS;fontSize=14;fillColor=default;fontStyle=1;fillStyle=auto;" vertex="1" parent="1">
          <mxGeometry x="180" y="220" width="30" height="30" as="geometry" />
        </mxCell>
        <mxCell id="c34SSBblT6kg_QO86g9Z-28" value="&lt;b&gt;Part-to-Whole&lt;/b&gt;&lt;br&gt;proportional" style="rounded=0;whiteSpace=wrap;html=1;fontFamily=Comic Sans MS;fillColor=none;strokeColor=#82b366;sketch=1;curveFitting=1;jiggle=2;fontSize=14;" vertex="1" parent="1">
          <mxGeometry x="200" y="385" width="140" height="60" as="geometry" />
        </mxCell>
        <mxCell id="c34SSBblT6kg_QO86g9Z-29" value="10" style="ellipse;whiteSpace=wrap;html=1;aspect=fixed;rounded=0;sketch=1;jiggle=2;curveFitting=1;strokeColor=#82b366;align=center;verticalAlign=middle;fontFamily=Comic Sans MS;fontSize=14;fillColor=default;fontStyle=1;fillStyle=auto;" vertex="1" parent="1">
          <mxGeometry x="180" y="365" width="30" height="30" as="geometry" />
        </mxCell>
        <mxCell id="c34SSBblT6kg_QO86g9Z-30" value="&lt;b&gt;Data &lt;br&gt;Segmentation&lt;/b&gt;" style="rounded=0;whiteSpace=wrap;html=1;fontFamily=Comic Sans MS;fillColor=none;strokeColor=#82b366;sketch=1;curveFitting=1;jiggle=2;fontSize=14;" vertex="1" parent="1">
          <mxGeometry x="354" y="490" width="140" height="60" as="geometry" />
        </mxCell>
        <mxCell id="c34SSBblT6kg_QO86g9Z-31" value="11" style="ellipse;whiteSpace=wrap;html=1;aspect=fixed;rounded=0;sketch=1;jiggle=2;curveFitting=1;strokeColor=#82b366;align=center;verticalAlign=middle;fontFamily=Comic Sans MS;fontSize=14;fillColor=default;fontStyle=1;fillStyle=auto;" vertex="1" parent="1">
          <mxGeometry x="334" y="470" width="30" height="30" as="geometry" />
        </mxCell>
        <mxCell id="c34SSBblT6kg_QO86g9Z-33" value="" style="endArrow=classic;html=1;rounded=0;exitX=1;exitY=0.5;exitDx=0;exitDy=0;entryX=0;entryY=0.5;entryDx=0;entryDy=0;sketch=1;jiggle=2;curveFitting=1;strokeColor=#6c8ebf;strokeWidth=3;align=center;verticalAlign=middle;fontFamily=Helvetica;fontSize=11;fontColor=default;labelBackgroundColor=default;fillColor=#dae8fc;" edge="1" parent="1" source="c34SSBblT6kg_QO86g9Z-2" target="c34SSBblT6kg_QO86g9Z-3">
          <mxGeometry width="50" height="50" relative="1" as="geometry">
            <mxPoint x="810" y="280" as="sourcePoint" />
            <mxPoint x="860" y="230" as="targetPoint" />
          </mxGeometry>
        </mxCell>
        <mxCell id="c34SSBblT6kg_QO86g9Z-34" value="" style="endArrow=classic;html=1;rounded=0;exitX=0;exitY=0.5;exitDx=0;exitDy=0;entryX=1;entryY=0.5;entryDx=0;entryDy=0;fillColor=#d5e8d4;strokeColor=#82b366;strokeWidth=3;sketch=1;curveFitting=1;jiggle=2;" edge="1" parent="1" source="c34SSBblT6kg_QO86g9Z-2" target="c34SSBblT6kg_QO86g9Z-5">
          <mxGeometry width="50" height="50" relative="1" as="geometry">
            <mxPoint x="660" y="298.46" as="sourcePoint" />
            <mxPoint x="790" y="298.46" as="targetPoint" />
          </mxGeometry>
        </mxCell>
        <mxCell id="c34SSBblT6kg_QO86g9Z-40" style="edgeStyle=orthogonalEdgeStyle;rounded=0;orthogonalLoop=1;jettySize=auto;html=1;exitX=0;exitY=1;exitDx=0;exitDy=0;entryX=0.423;entryY=-0.003;entryDx=0;entryDy=0;entryPerimeter=0;shadow=0;sketch=1;jiggle=2;curveFitting=1;strokeColor=#6c8ebf;align=center;verticalAlign=middle;fontFamily=Helvetica;fontSize=11;fontColor=default;labelBackgroundColor=default;endArrow=classic;fillColor=#dae8fc;" edge="1" parent="1" source="c34SSBblT6kg_QO86g9Z-3" target="c34SSBblT6kg_QO86g9Z-8">
          <mxGeometry relative="1" as="geometry" />
        </mxCell>
        <mxCell id="c34SSBblT6kg_QO86g9Z-42" style="edgeStyle=orthogonalEdgeStyle;rounded=0;orthogonalLoop=1;jettySize=auto;html=1;exitX=1;exitY=0;exitDx=0;exitDy=0;entryX=0.436;entryY=1.01;entryDx=0;entryDy=0;entryPerimeter=0;sketch=1;curveFitting=1;jiggle=2;fillColor=#d5e8d4;strokeColor=#82b366;" edge="1" parent="1" source="c34SSBblT6kg_QO86g9Z-5" target="c34SSBblT6kg_QO86g9Z-18">
          <mxGeometry relative="1" as="geometry" />
        </mxCell>
      </root>
    </mxGraphModel>
  </diagram>
</mxfile>
